<svg width="30" height="32" viewBox="0 0 30 32" fill="none" xmlns="http://www.w3.org/2000/svg">
<path d="M19.9031 0.723907C17.2684 0.724093 14.7417 1.78984 12.8787 3.68673C11.0156 5.58362 9.96893 8.1563 9.96875 10.8389V11.0769H0V31.3909H20.2125V20.9469C22.8232 20.8705 25.2993 19.7503 27.1048 17.8288C28.9103 15.9072 29.8998 13.3389 29.8591 10.68C29.8184 8.02101 28.7508 5.48536 26.8875 3.62198C25.0241 1.7586 22.5149 0.717438 19.9031 0.723907ZM3.4375 27.8909V14.5769H9.96875V20.9539H16.775V27.8909H3.4375ZM20.2125 17.4469C20.1094 17.4539 20.0063 17.4539 19.9031 17.4539H13.4062V10.8389C13.4063 9.54402 13.7797 8.27764 14.48 7.19676C15.1803 6.11589 16.1768 5.26805 17.3459 4.75838C18.515 4.2487 19.8053 4.0996 21.0569 4.32956C22.3084 4.55951 23.4662 5.15841 24.3866 6.052C25.307 6.94559 25.9496 8.09458 26.2347 9.35651C26.5197 10.6184 26.4348 11.9378 25.9904 13.1511C25.546 14.3643 24.7616 15.4181 23.7345 16.1817C22.7074 16.9453 21.4828 17.3852 20.2125 17.4469Z" fill="#3A86FF"/>
</svg>
